<?xml version="1.0" standalone="no"?><!DOCTYPE svg PUBLIC "-//W3C//DTD SVG 1.1//EN" "http://www.w3.org/Graphics/SVG/1.1/DTD/svg11.dtd"><svg t="1689953313256" class="icon" viewBox="0 0 1024 1024" version="1.1" xmlns="http://www.w3.org/2000/svg" p-id="8059" xmlns:xlink="http://www.w3.org/1999/xlink" width="200" height="200"><path d="M512 65.290005c-246.710938 0-446.708971 199.999057-446.708971 446.708971s199.999057 446.708971 446.708971 446.708971S958.708971 758.710938 958.708971 512 758.710938 65.290005 512 65.290005zM512 883.429451c-205.13503 0-371.429451-166.29442-371.429451-371.429451s166.29442-371.429451 371.429451-371.429451 371.429451 166.29442 371.429451 371.429451S717.13503 883.429451 512 883.429451z" fill="#8a8a8a" p-id="8060"></path><path d="M657.616472 382.038066 450.478831 589.175707l-84.095303-84.095303c-14.7264-14.7264-38.60218-14.7264-53.328579 0l0 0c-14.7264 14.7264-14.7264 38.60218 0 53.328579l110.759593 110.759593 0 0c14.7264 14.7264 38.60218 14.7264 53.328579 0l0 0 233.800907-233.800907c14.7264-14.7264 14.7264-38.60218 0-53.328579l0 0C696.218652 367.311667 672.342872 367.311667 657.616472 382.038066z" fill="#8a8a8a" p-id="8061"></path></svg>